<?xml version="1.0" encoding="utf-8"?>
<!-- Generator: Adobe Illustrator 16.0.0, SVG Export Plug-In . SVG Version: 6.00 Build 0)  -->
<!DOCTYPE svg PUBLIC "-//W3C//DTD SVG 1.0//EN" "http://www.w3.org/TR/2001/REC-SVG-20010904/DTD/svg10.dtd">
<svg version="1.0" id="Layer_1" xmlns="http://www.w3.org/2000/svg" xmlns:xlink="http://www.w3.org/1999/xlink" x="0px" y="0px"
	 width="443.491px" height="364.289px" viewBox="0 0 443.491 364.289" enable-background="new 0 0 443.491 364.289"
	 xml:space="preserve">
<g>
	<defs>
		<rect id="SVGID_1_" x="-178.264" y="-220.897" width="800" height="800"/>
	</defs>
	<clipPath id="SVGID_2_">
		<use xlink:href="#SVGID_1_"  overflow="visible"/>
	</clipPath>
</g>
<g>
	<polygon fill="#E83C3F" points="37.695,347.944 31.587,347.944 31.587,343.872 48.218,343.872 48.218,347.944 42.112,347.944 
		42.112,363.943 37.695,363.943 	"/>
	<polygon fill="#E83C3F" points="60.941,343.873 65.357,343.873 65.357,351.814 73.5,351.814 73.5,343.873 77.917,343.873 
		77.917,363.943 73.5,363.943 73.5,355.887 65.357,355.887 65.357,363.943 60.941,363.943 	"/>
	<polygon fill="#E83C3F" points="92.073,343.873 107.212,343.873 107.212,347.802 96.459,347.802 96.459,351.874 105.921,351.874 
		105.921,355.801 96.459,355.801 96.459,360.015 107.356,360.015 107.356,363.943 92.073,363.943 	"/>
	<path fill="#E83C3F" d="M127.505,343.729h4.072l8.602,20.215h-4.616l-1.835-4.502h-8.487l-1.835,4.502h-4.502L127.505,343.729z
		 M132.152,355.544l-2.667-6.51l-2.667,6.51H132.152z"/>
	<polygon fill="#E83C3F" points="154.708,347.944 148.6,347.944 148.6,343.872 165.233,343.872 165.233,347.944 159.125,347.944 
		159.125,363.943 154.708,363.943 	"/>
	<polygon fill="#E83C3F" points="177.956,343.873 193.096,343.873 193.096,347.802 182.343,347.802 182.343,351.874 
		191.805,351.874 191.805,355.801 182.343,355.801 182.343,360.015 193.24,360.015 193.24,363.943 177.956,363.943 	"/>
	<path fill="#E83C3F" d="M206.506,343.873h9.176c2.552,0,4.53,0.717,5.851,2.034c1.115,1.118,1.72,2.697,1.72,4.59v0.057
		c0,3.239-1.749,5.276-4.301,6.222l4.901,7.168h-5.161l-4.301-6.422h-0.056h-3.414v6.422h-4.415V343.873z M215.394,353.623
		c2.151,0,3.384-1.148,3.384-2.841v-0.057c0-1.892-1.317-2.867-3.47-2.867h-4.387v5.765H215.394z"/>
	<path fill="#E83C3F" d="M253.143,361.021l2.609-3.127c1.808,1.49,3.7,2.439,5.993,2.439c1.808,0,2.896-0.717,2.896-1.895v-0.057
		c0-1.119-0.688-1.692-4.043-2.552c-4.044-1.033-6.652-2.151-6.652-6.136v-0.058c0-3.643,2.924-6.052,7.024-6.052
		c2.924,0,5.42,0.918,7.457,2.552l-2.296,3.327c-1.776-1.233-3.527-1.978-5.217-1.978c-1.693,0-2.582,0.773-2.582,1.749v0.057
		c0,1.318,0.86,1.749,4.331,2.638c4.07,1.063,6.365,2.523,6.365,6.021v0.059c0,3.985-3.04,6.223-7.37,6.223
		C258.62,364.232,255.552,363.17,253.143,361.021"/>
	<polygon fill="#E83C3F" points="286.456,347.944 280.348,347.944 280.348,343.872 296.978,343.872 296.978,347.944 
		290.873,347.944 290.873,363.943 286.456,363.943 	"/>
	<path fill="#E83C3F" d="M309.387,355.342v-11.469h4.414v11.356c0,3.268,1.636,4.959,4.331,4.959s4.33-1.635,4.33-4.817v-11.498
		h4.417v11.326c0,6.08-3.414,9.06-8.804,9.06C312.683,364.259,309.387,361.249,309.387,355.342"/>
	<path fill="#E83C3F" d="M340.718,343.872h7.829c6.309,0,10.666,4.331,10.666,9.979v0.057c0,5.649-4.357,10.036-10.666,10.036
		h-7.829V343.872z M348.547,359.958c3.611,0,6.05-2.436,6.05-5.993v-0.057c0-3.554-2.438-6.05-6.05-6.05h-3.414v12.1H348.547z"/>
	<rect x="372.681" y="343.872" fill="#E83C3F" width="4.417" height="20.071"/>
	<path fill="#E83C3F" d="M390.568,353.965v-0.057c0-5.705,4.503-10.38,10.696-10.38c6.192,0,10.639,4.615,10.639,10.324v0.056
		c0,5.708-4.503,10.381-10.695,10.381C395.012,364.289,390.568,359.673,390.568,353.965 M407.285,353.965v-0.057
		c0-3.441-2.522-6.309-6.077-6.309c-3.558,0-6.023,2.812-6.023,6.253v0.056c0,3.441,2.522,6.309,6.08,6.309
		C404.818,360.217,407.285,357.406,407.285,353.965"/>
</g>
<path fill="#2C3A49" d="M0,314.642v-0.226c0-13.275,10.096-19.401,24.504-19.401c6.128,0,10.55,1.022,14.863,2.496v-1.021
	c0-7.148-4.423-11.117-13.048-11.117c-6.579,0-11.232,1.246-16.788,3.289l-4.312-13.161c6.692-2.949,13.275-4.877,23.597-4.877
	c9.417,0,16.224,2.495,20.536,6.806c4.536,4.538,6.579,11.232,6.579,19.401v35.282H39.253v-6.58
	c-4.199,4.651-9.982,7.715-18.379,7.715C9.417,333.248,0,326.668,0,314.642 M39.594,310.672v-3.063
	c-2.948-1.362-6.806-2.269-11.005-2.269c-7.374,0-11.911,2.948-11.911,8.395v0.227c0,4.652,3.855,7.375,9.414,7.375
	C34.148,321.336,39.594,316.912,39.594,310.672"/>
<path fill="#2C3A49" d="M67.824,302.049v-0.228c0-17.357,13.275-31.652,31.882-31.652c11.456,0,18.606,3.857,24.276,10.211
	l-10.55,11.344c-3.858-4.083-7.712-6.692-13.84-6.692c-8.621,0-14.749,7.603-14.749,16.564v0.226
	c0,9.304,6.014,16.791,15.427,16.791c5.787,0,9.759-2.495,13.957-6.467l10.096,10.211c-5.9,6.467-12.707,11.117-24.845,11.117
	C81.212,333.474,67.824,319.406,67.824,302.049"/>
<path fill="#2C3A49" d="M138.375,314.869v-28.816h-7.261v-14.749h7.261v-15.543h17.246v15.543h14.295v14.749h-14.295v25.98
	c0,3.971,1.702,5.899,5.56,5.899c3.175,0,6.01-0.796,8.507-2.155v13.841c-3.63,2.153-7.829,3.517-13.616,3.517
	C145.522,333.135,138.375,328.938,138.375,314.869"/>
<path fill="#2C3A49" d="M178.981,314.642v-0.226c0-13.275,10.096-19.401,24.504-19.401c6.128,0,10.55,1.022,14.863,2.496v-1.021
	c0-7.148-4.426-11.117-13.048-11.117c-6.579,0-11.232,1.246-16.791,3.289l-4.309-13.161c6.692-2.949,13.275-4.877,23.597-4.877
	c9.417,0,16.224,2.495,20.536,6.806c4.536,4.538,6.579,11.232,6.579,19.401v35.282h-16.678v-6.58
	c-4.199,4.651-9.982,7.715-18.379,7.715C188.399,333.248,178.981,326.668,178.981,314.642 M218.575,310.672v-3.063
	c-2.948-1.362-6.806-2.269-11.005-2.269c-7.374,0-11.911,2.948-11.911,8.395v0.227c0,4.652,3.855,7.375,9.414,7.375
	C213.129,321.336,218.575,316.912,218.575,310.672"/>
<path fill="#2C3A49" d="M336.763,289.115v0.227c0,13.274-10.097,19.4-24.505,19.4c-6.128,0-10.55-1.021-14.862-2.496v1.021
	c0,7.147,4.426,11.117,13.048,11.117c6.579,0,11.231-1.247,16.792-3.289l4.308,13.161c-6.691,2.947-13.273,4.877-23.597,4.877
	c-9.417,0-16.224-2.495-20.536-6.807c-4.536-4.537-6.579-11.231-6.579-19.4v-35.283h16.678v6.581
	c4.199-4.652,9.982-7.716,18.381-7.716C327.345,270.509,336.763,277.09,336.763,289.115 M297.168,293.086v3.063
	c2.948,1.362,6.807,2.269,11.005,2.269c7.375,0,11.911-2.948,11.911-8.395v-0.227c0-4.652-3.854-7.375-9.414-7.375
	C302.615,282.422,297.168,286.846,297.168,293.086"/>
<path fill="#2C3A49" d="M348.542,324.059l7.375-11.346c6.582,4.765,13.502,7.261,19.175,7.261c4.99,0,7.261-1.815,7.261-4.538
	v-0.227c0-3.743-5.9-4.991-12.593-7.034c-8.512-2.495-18.151-6.466-18.151-18.267v-0.225c0-12.367,9.98-19.287,22.232-19.287
	c7.717,0,16.113,2.609,22.692,7.033l-6.579,11.913c-6.014-3.518-12.028-5.673-16.45-5.673c-4.198,0-6.354,1.814-6.354,4.198v0.226
	c0,3.404,5.786,4.993,12.365,7.261c8.511,2.837,18.38,6.922,18.38,18.04v0.226c0,13.502-10.097,19.628-23.258,19.628
	C366.128,333.248,356.598,330.411,348.542,324.059"/>
<path fill="#2C3A49" d="M411.95,314.869v-28.816h-7.261v-14.749h7.261v-15.543h17.246v15.543h14.295v14.749h-14.295v25.98
	c0,3.971,1.702,5.899,5.56,5.899c3.176,0,6.011-0.796,8.508-2.155v13.841c-3.631,2.153-7.829,3.517-13.616,3.517
	C419.097,333.135,411.95,328.938,411.95,314.869"/>
<path fill="#E83C3F" d="M249.671,27.926C249.671,12.503,237.168,0,221.746,0c-15.424,0-27.927,12.503-27.927,27.926
	c0,15.423,12.503,27.927,27.927,27.927C237.168,55.853,249.671,43.349,249.671,27.926"/>
<path fill="#2C3A49" d="M298.107,46.48c-40.702,0-60.982,16.429-70.702,30.044c-0.348,0.451-1.64,2.144-3.295,4.451
	c-2.805-5.166-6.266-9.835-10.404-13.972c-13.427-13.427-33.564-20.523-58.229-20.523c-19.131,0-36.454,3.746-56.166,12.148
	c-6.772,2.889-9.963,10.781-7.109,17.592c1.399,3.343,4.134,6.023,7.504,7.352c3.38,1.336,7.057,1.252,10.36-0.231
	c15.008-6.747,29.116-9.89,44.403-9.89c23.16,0,50.77,8.108,50.77,46.734l0.002,7.529l0.334,15.011v19.513
	c0,26.834-25.442,47.069-59.181,47.069c-21.885,0-44.043-11.545-44.043-33.613v-0.672c0-21.469,18.98-34.287,50.77-34.287
	c13.232,0,26.049,1.188,39.184,3.632l6.739,1.253l0.06-6.854c0.032-3.63,0.079-10.219,0.052-15.22l-0.027-4.753l-4.67-0.868
	c-12.813-2.38-25.625-3.488-40.327-3.488c-49.066,0-80.771,24.177-80.771,61.594v0.673c0,38.695,37.107,59.575,72.023,59.575
	c40.704,0,60.984-16.431,70.704-30.048c0.348-0.449,1.639-2.143,3.292-4.447c2.805,5.166,6.267,9.834,10.405,13.972
	c13.428,13.426,33.564,20.523,58.229,20.523c19.133,0,36.454-3.748,56.166-12.15c6.773-2.886,9.965-10.779,7.11-17.591
	c-1.398-3.343-4.134-6.021-7.502-7.353c-3.388-1.337-7.063-1.254-10.364,0.23c-15.009,6.749-29.118,9.891-44.402,9.891
	c-23.161,0-50.771-8.107-50.771-46.734l-0.002-7.528l-0.335-15.012v-19.512c0-26.834,25.443-47.07,59.183-47.07
	c21.885,0,44.042,11.546,44.042,33.613v0.673c0,21.469-18.98,34.287-50.771,34.287c-13.225,0-26.041-1.188-39.183-3.633
	l-6.739-1.253l-0.061,6.854c-0.031,3.628-0.076,10.216-0.052,15.218l0.025,4.754l4.672,0.869c12.813,2.38,25.624,3.489,40.327,3.489
	c49.066,0,80.77-24.178,80.77-61.594v-0.673C370.128,67.36,333.022,46.48,298.107,46.48"/>
</svg>
