<svg xmlns="http://www.w3.org/2000/svg" version="1" width="443.491" height="371.215"><path d="M35.343 353.412v17.426h-4.81v-17.426h-6.654v-4.435h18.115v4.435zm39-4.434v21.86h-4.811v-8.774h-8.87v8.774h-4.81v-21.86h4.81v8.65h8.87v-8.65zm30.502 8.714v4.278H94.54v4.59h11.87v4.278H89.761v-21.86h16.49v4.28H94.539v4.434zm23.51-8.871h4.435l9.37 22.018h-5.028l-1.999-4.903h-9.244l-1.999 4.903h-4.903zm5.062 12.869l-2.905-7.09-2.905 7.09zm29.38-8.278v17.426h-4.812v-17.426h-6.653v-4.435h18.117v4.435zm35.595 4.28v4.278h-10.306v4.59h11.87v4.278h-16.649v-21.86h16.491v4.28h-11.712v4.434zm16.013-8.714h9.994c2.78 0 4.935.78 6.373 2.215 1.215 1.218 1.874 2.938 1.874 5v.062c0 3.528-1.905 5.746-4.685 6.777l5.338 7.807h-5.621l-4.685-6.995h-3.78v6.995h-4.808zm9.68 10.62c2.344 0 3.687-1.25 3.687-3.095v-.062c0-2.06-1.435-3.123-3.78-3.123h-4.778v6.28zm22.601 8.058l2.842-3.406c1.97 1.623 4.03 2.656 6.527 2.656 1.97 0 3.155-.78 3.155-2.064v-.062c0-1.219-.75-1.843-4.404-2.78-4.405-1.125-7.245-2.343-7.245-6.683v-.063c0-3.968 3.185-6.592 7.65-6.592 3.185 0 5.904 1 8.123 2.78l-2.501 3.623c-1.935-1.343-3.842-2.154-5.683-2.154-1.844 0-2.812.842-2.812 1.905v.062c0 1.436.937 1.905 4.717 2.873 4.434 1.158 6.933 2.748 6.933 6.559v.064c0 4.34-3.311 6.778-8.027 6.778-3.31.001-6.651-1.156-9.275-3.496m36.285-14.244h-6.653v-4.435h18.114v4.435h-6.65v17.426h-4.81zm24.977 8.058v-12.492h4.808v12.369c0 3.56 1.782 5.401 4.717 5.401 2.936 0 4.717-1.78 4.717-5.246v-12.524H327v12.336c0 6.623-3.718 9.869-9.589 9.869-5.873 0-9.463-3.28-9.463-9.713m34.127-12.493h8.527c6.872 0 11.618 4.717 11.618 10.869v.062c0 6.153-4.746 10.931-11.618 10.931h-8.527zm8.527 17.52c3.933 0 6.59-2.653 6.59-6.527v-.062c0-3.871-2.656-6.59-6.59-6.59h-3.719v13.18zm26.287-17.52h4.811v21.861h-4.81zm19.483 10.993v-.062c0-6.214 4.905-11.306 11.65-11.306s11.589 5.027 11.589 11.245v.061c0 6.217-4.905 11.307-11.65 11.307-6.748 0-11.589-5.028-11.589-11.245m18.209 0v-.062c0-3.748-2.747-6.872-6.62-6.872-3.875 0-6.56 3.063-6.56 6.811v.061c0 3.748 2.747 6.872 6.623 6.872 3.87 0 6.557-3.062 6.557-6.81" fill="#e83c3f"/><path d="M0 314.642v-.226c0-13.275 10.096-19.401 24.504-19.401 6.128 0 10.55 1.022 14.863 2.496v-1.021c0-7.148-4.423-11.117-13.048-11.117-6.579 0-11.232 1.246-16.788 3.289l-4.312-13.161c6.692-2.949 13.275-4.877 23.597-4.877 9.417 0 16.224 2.495 20.536 6.806 4.536 4.538 6.579 11.232 6.579 19.401v35.282H39.253v-6.58c-4.199 4.651-9.982 7.715-18.379 7.715C9.417 333.248 0 326.668 0 314.642m39.594-3.97v-3.063c-2.948-1.362-6.806-2.269-11.005-2.269-7.374 0-11.911 2.948-11.911 8.395v.227c0 4.652 3.855 7.375 9.414 7.375 8.056-.001 13.502-4.425 13.502-10.665m28.23-8.623v-.228c0-17.357 13.275-31.652 31.882-31.652 11.456 0 18.606 3.857 24.276 10.211l-10.55 11.344c-3.858-4.083-7.712-6.692-13.84-6.692-8.621 0-14.749 7.603-14.749 16.564v.226c0 9.304 6.014 16.791 15.427 16.791 5.787 0 9.759-2.495 13.957-6.467l10.096 10.211c-5.9 6.467-12.707 11.117-24.845 11.117-18.266 0-31.654-14.068-31.654-31.425m70.551 12.82v-28.816h-7.261v-14.749h7.261v-15.543h17.246v15.543h14.295v14.749h-14.295v25.98c0 3.971 1.702 5.899 5.56 5.899 3.175 0 6.01-.796 8.507-2.155v13.841c-3.63 2.153-7.829 3.517-13.616 3.517-10.55 0-17.697-4.197-17.697-18.266m40.606-.227v-.226c0-13.275 10.096-19.401 24.504-19.401 6.128 0 10.55 1.022 14.863 2.496v-1.021c0-7.148-4.426-11.117-13.048-11.117-6.579 0-11.232 1.246-16.791 3.289l-4.309-13.161c6.692-2.949 13.275-4.877 23.597-4.877 9.417 0 16.224 2.495 20.536 6.806 4.536 4.538 6.579 11.232 6.579 19.401v35.282h-16.678v-6.58c-4.199 4.651-9.982 7.715-18.379 7.715-11.456 0-20.874-6.58-20.874-18.606m39.594-3.97v-3.063c-2.948-1.362-6.806-2.269-11.005-2.269-7.374 0-11.911 2.948-11.911 8.395v.227c0 4.652 3.855 7.375 9.414 7.375 8.056-.001 13.502-4.425 13.502-10.665m118.188-21.557v.227c0 13.274-10.097 19.4-24.505 19.4-6.128 0-10.55-1.021-14.862-2.496v1.021c0 7.147 4.426 11.117 13.048 11.117 6.579 0 11.231-1.247 16.792-3.289l4.308 13.161c-6.691 2.947-13.273 4.877-23.597 4.877-9.417 0-16.224-2.495-20.536-6.807-4.536-4.537-6.579-11.231-6.579-19.4v-35.283h16.678v6.581c4.199-4.652 9.982-7.716 18.381-7.716 11.454.001 20.872 6.582 20.872 18.607m-39.595 3.971v3.063c2.948 1.362 6.807 2.269 11.005 2.269 7.375 0 11.911-2.948 11.911-8.395v-.227c0-4.652-3.854-7.375-9.414-7.375-8.055.001-13.502 4.425-13.502 10.665m51.374 30.973l7.375-11.346c6.582 4.765 13.502 7.261 19.175 7.261 4.99 0 7.261-1.815 7.261-4.538v-.227c0-3.743-5.9-4.991-12.593-7.034-8.512-2.495-18.151-6.466-18.151-18.267v-.225c0-12.367 9.98-19.287 22.232-19.287 7.717 0 16.113 2.609 22.692 7.033l-6.579 11.913c-6.014-3.518-12.028-5.673-16.45-5.673-4.198 0-6.354 1.814-6.354 4.198v.226c0 3.404 5.786 4.993 12.365 7.261 8.511 2.837 18.38 6.922 18.38 18.04v.226c0 13.502-10.097 19.628-23.258 19.628-8.509 0-18.039-2.837-26.095-9.189m63.408-9.19v-28.816h-7.261v-14.749h7.261v-15.543h17.246v15.543h14.295v14.749h-14.295v25.98c0 3.971 1.702 5.899 5.56 5.899 3.176 0 6.011-.796 8.508-2.155v13.841c-3.631 2.153-7.829 3.517-13.616 3.517-10.551 0-17.698-4.197-17.698-18.266" fill="#2c3a49"/><path d="M249.671 27.926C249.671 12.503 237.168 0 221.746 0c-15.424 0-27.927 12.503-27.927 27.926 0 15.423 12.503 27.927 27.927 27.927 15.422 0 27.925-12.504 27.925-27.927" fill="#e83c3f"/><path d="M298.107 46.48c-40.702 0-60.982 16.429-70.702 30.044-.348.451-1.64 2.144-3.295 4.451-2.805-5.166-6.266-9.835-10.404-13.972-13.427-13.427-33.564-20.523-58.229-20.523-19.131 0-36.454 3.746-56.166 12.148-6.772 2.889-9.963 10.781-7.109 17.592a13.583 13.583 0 0 0 7.504 7.352 13.222 13.222 0 0 0 10.36-.231c15.008-6.747 29.116-9.89 44.403-9.89 23.16 0 50.77 8.108 50.77 46.734l.002 7.529.334 15.011v19.513c0 26.834-25.442 47.069-59.181 47.069-21.885 0-44.043-11.545-44.043-33.613v-.672c0-21.469 18.98-34.287 50.77-34.287 13.232 0 26.049 1.188 39.184 3.632l6.739 1.253.06-6.854c.032-3.63.079-10.219.052-15.22l-.027-4.753-4.67-.868c-12.813-2.38-25.625-3.488-40.327-3.488-49.066 0-80.771 24.177-80.771 61.594v.673c0 38.695 37.107 59.575 72.023 59.575 40.704 0 60.984-16.431 70.704-30.048.348-.449 1.639-2.143 3.292-4.447 2.805 5.166 6.267 9.834 10.405 13.972 13.428 13.426 33.564 20.523 58.229 20.523 19.133 0 36.454-3.748 56.166-12.15 6.773-2.886 9.965-10.779 7.11-17.591a13.594 13.594 0 0 0-7.502-7.353c-3.388-1.337-7.063-1.254-10.364.23-15.009 6.749-29.118 9.891-44.402 9.891-23.161 0-50.771-8.107-50.771-46.734l-.002-7.528-.335-15.012V120.52c0-26.834 25.443-47.07 59.183-47.07 21.885 0 44.042 11.546 44.042 33.613v.673c0 21.469-18.98 34.287-50.771 34.287-13.225 0-26.041-1.188-39.183-3.633l-6.739-1.253-.061 6.854c-.031 3.628-.076 10.216-.052 15.218l.025 4.754 4.672.869c12.813 2.38 25.624 3.489 40.327 3.489 49.066 0 80.77-24.178 80.77-61.594v-.673c.001-38.694-37.105-59.574-72.02-59.574" fill="#2c3a49"/></svg>